<svg xmlns="http://www.w3.org/2000/svg" viewBox="0 0 246.73 48.94"><defs><style>.a{fill:#d21c2e;}.b{fill:#231f20;}</style></defs><title>Cadence logo - Brandlogos.net</title><path class="a" d="M424.12,493h19.8v-5.45h-19.8Z" transform="translate(-388.64 -487.53)"/><path class="b" d="M407.61,535.34a12.05,12.05,0,0,1-5.47,1.13c-8.11,0-13.5-6-13.5-17.24,0-10.23,5.66-17.91,14.71-17.91a8.58,8.58,0,0,1,4.26,1v5.94a12.37,12.37,0,0,0-4.11-.76c-4.88,0-7.39,5.31-7.39,11.59,0,7,2.82,11.24,7.4,11.24a10,10,0,0,0,4.1-.81v5.83" transform="translate(-388.64 -487.53)"/><path class="b" d="M436.54,530.47v-12c-2.91,0-8.2.84-8.2,6.79,0,3.86,2.06,5.25,3.7,5.25Zm7.38-2.72a59.61,59.61,0,0,0,.53,8.29H429.79c-4.9,0-8.59-4.07-8.59-10.06,0-8.78,7.42-12.49,15.15-12.56v-.6c0-3.56-1.39-6.06-5.11-6.06a14.06,14.06,0,0,0-7.08,1.9v-5.11a15.92,15.92,0,0,1,8.71-2.44c8.8,0,11,5.72,11,13v13.66" transform="translate(-388.64 -487.53)"/><path class="b" d="M476.86,530.42H472.5c-3.14,0-5-4.74-5-11.56,0-6.11,1.36-11.5,5.14-11.5,2.21,0,3.75,2.43,4.07,5.18a13.76,13.76,0,0,1,.11,2.1Zm7.46-2.68V491h-7.45v13.71h-.14a6.21,6.21,0,0,0-6-3.71c-5.52,0-10.67,5.75-10.67,17.74,0,10.29,3.71,17.26,10.32,17.26h14.46a60.06,60.06,0,0,1-.53-8.29" transform="translate(-388.64 -487.53)"/><path class="b" d="M517,515.61c.06-5.48-1.74-8.74-4.4-8.74-3.25,0-4.72,4.73-4.87,8.74Zm-9.3,5.33c.08,7.64,3.63,9.71,7.61,9.71a18.72,18.72,0,0,0,6.66-1.21v5.39a19,19,0,0,1-8,1.61c-8.81,0-13.54-6.39-13.54-17,0-11.3,5.42-18.18,12.71-18.18S524,507.78,524,516.94a30.39,30.39,0,0,1-.2,4h-16" transform="translate(-388.64 -487.53)"/><path class="b" d="M547.62,507.64v28.42h-7.49V511.53c0-3.86-.19-6.88-.31-9.91h14.76c5.69,0,9.08,4.14,9.08,12.07v22.38h-7.49V514.4c0-3.41-.73-6.75-4-6.75h-4.58" transform="translate(-388.64 -487.53)"/><path class="b" d="M598.56,535.34a12.06,12.06,0,0,1-5.47,1.13c-8.11,0-13.51-6-13.51-17.24,0-10.23,5.66-17.91,14.72-17.91a8.59,8.59,0,0,1,4.26,1v5.94a12.41,12.41,0,0,0-4.11-.76c-4.88,0-7.39,5.31-7.39,11.59,0,7,2.82,11.24,7.4,11.24a10,10,0,0,0,4.1-.81v5.83" transform="translate(-388.64 -487.53)"/><path class="b" d="M619.16,515.61c.15-4,1.62-8.74,4.86-8.74,2.66,0,4.46,3.26,4.4,8.74Zm16.2,1.33c0-9.16-3.62-15.65-10.8-15.65s-12.72,6.88-12.72,18.18c0,10.58,4.73,17,13.54,17a19,19,0,0,0,8-1.61v-5.39a18.75,18.75,0,0,1-6.66,1.21c-4,0-7.53-2.07-7.61-9.71h16a30.53,30.53,0,0,0,.19-4" transform="translate(-388.64 -487.53)"/></svg>